# xmcd CD database file
#
# Track frame offsets:
#	150
#	11086
#	25079
#	36437
#	48998
#	62395
#	76042
#	87609
#	99286
#	110186
#	125431
#	130654
#	142935
#	155269
#	167715
#
# Disc length: 2368 seconds
#
# Revision: 0
# Processed by: cddbd v1.5.2PL0 Copyright (c) Steve Scherf et al.
# Submitted via: CDex 1.50
#
DISCID=b8093e0f
DTITLE=Various Artist - The Sun Records Collection Vol. 2  CD2 (Blues Sun)
DYEAR=1900
DGENRE=Blues
TTITLE0=Howlin Wolf - Highway man
TTITLE1=Billy 'the Kid' Emerson - The Woodchuck
TTITLE2=Earl Peterson - Boogie Blues
TTITLE3=Rufus Thomas - Tiger man (King of the jungle)
TTITLE4=Jimmy and Walter - Easy
TTITLE5=James Cotton - Cotton Crop Blues
TTITLE6=Little Junior Parker - Love My Baby
TTITLE7=Jeb Stuart - I bet you're gonna like it
TTITLE8=Billy Lee Riley - Dark muddy bottom
TTITLE9=Jerry Lee Lewis - Hello Hello Baby
TTITLE10=Charlie Rich - Charlie's Boogie
TTITLE11=Willy Nix - Seems like a million years
TTITLE12=Harmonica Frank Floyd - Howlin Tom Cat
TTITLE13=Joe Hill Louis - Boogie in the Park
TTITLE14=Lost John Hunter - Cool down Mama
EXTD=
EXTT0=
EXTT1=
EXTT2=
EXTT3=
EXTT4=
EXTT5=
EXTT6=
EXTT7=
EXTT8=
EXTT9=
EXTT10=
EXTT11=
EXTT12=
EXTT13=
EXTT14=
PLAYORDER=
